<svg width="112" height="112" viewBox="0 0 112 112" xmlns="http://www.w3.org/2000/svg">
<path fill-rule="nonzero" clip-rule="nonzero" d="M56 112C86.9281 112 112 86.9281 112 56C112 25.0721 86.9281 0 56 0C25.072 0 0 25.0721 0 56C0 86.9281 25.072 112 56 112ZM55.9999 108.706C85.1088 108.706 108.706 85.1088 108.706 56.0004C108.706 26.8917 85.1088 3.29451 55.9999 3.29451C26.8913 3.29451 3.29406 26.8917 3.29406 56.0004C3.29406 85.1088 26.8913 108.706 55.9999 108.706Z" fill="white"/>
<path fill-rule="evenodd" clip-rule="evenodd" d="M38.8086 38.4424C37.3873 38.4424 36.2351 39.5946 36.2351 41.0159C36.2351 42.2497 37.1031 43.2806 38.2619 43.5313V66.2949C37.1031 66.5455 36.2351 67.5766 36.2351 68.8107C36.2351 70.2317 37.3873 71.3839 38.8086 71.3839H73.1906C74.6123 71.3839 75.7645 70.2317 75.7645 68.8107C75.7645 67.5766 74.8958 66.5455 73.7373 66.2949V43.5314C74.8958 43.2809 75.7645 42.2498 75.7645 41.0159C75.7645 39.5946 74.6123 38.4424 73.1906 38.4424H38.8086ZM68.6693 43.5895H43.3297V49.9724H47.0761C47.7961 47.1308 50.336 45.031 53.3586 45.031C56.3813 45.031 58.9211 47.1308 59.6411 49.9724H68.6693V43.5895ZM68.6693 53.2665H59.6411C59.419 54.1425 59.0241 54.9479 58.4954 55.643C58.5677 55.7122 58.6426 55.7824 58.7201 55.8538C59.7972 56.8463 61.2443 57.8435 62.3549 58.555C63.1785 59.0826 63.3234 60.254 62.6221 60.9355C62.1634 61.3813 61.4701 61.4786 60.9193 61.1536C59.7458 60.4612 57.7397 59.1929 56.5471 57.9659C56.4225 57.8377 56.2978 57.7006 56.1734 57.5566C56.0834 57.6007 55.9923 57.6427 55.9 57.6826C55.9082 57.7537 55.9154 57.824 55.9215 57.8933C56.0738 59.5976 55.7267 61.9455 55.4861 63.2863C55.3732 63.9163 54.8473 64.3783 54.2102 64.435C53.2363 64.5218 52.4428 63.6482 52.58 62.68C52.7639 61.3826 52.9506 59.6494 52.9042 58.1915C50.084 57.9934 47.76 55.9643 47.0762 53.2665H43.3297V66.2368H68.6693V53.2665Z" fill="#FD4B20"/>
<path fill-rule="evenodd" clip-rule="nonzero" d="M56 112C86.9281 112 112 86.9281 112 56C112 25.0721 86.9281 0 56 0C25.072 0 0 25.0721 0 56C0 86.9281 25.072 112 56 112ZM55.9999 108.706C85.1088 108.706 108.706 85.1088 108.706 56.0004C108.706 26.8917 85.1088 3.29451 55.9999 3.29451C26.8913 3.29451 3.29406 26.8917 3.29406 56.0004C3.29406 85.1088 26.8913 108.706 55.9999 108.706Z" fill="#333333"/>
<path d="M13.2371 35.5958C12.6206 35.6106 12.3832 35.995 12.7028 36.6051C14.2899 39.5478 16.9089 43.5439 18.1224 44.829C18.5668 45.267 18.9741 45.5836 19.3707 45.7926C20.0052 46.1272 20.5672 46.1516 21.1342 45.9748C21.7822 45.7729 21.8063 45.3441 21.4817 44.9351C19.6786 42.592 17.7202 40.0311 16.96 37.762C16.094 35.4373 16.0427 33.7456 16.1692 33.5067C16.2676 33.3207 16.7301 34.108 17.3074 35.1256C18.3982 37.0255 20.1839 39.5293 21.6117 40.2819C22.9865 41.0066 24.2932 40.7102 25.2352 38.9308C26.0788 37.3373 25.7039 34.6599 24.6434 33.1497C24.1263 32.4016 23.2926 31.9962 22.8629 32.0414C22.3662 32.0853 22.143 32.4432 22.5047 32.9736C23.77 34.8635 24.7575 37.1504 24.2794 38.0534C24.0967 38.3986 23.6545 38.4034 23.0993 38.1107C22.121 37.595 20.854 35.7722 19.9555 34.2116C18.9248 32.5813 18.3319 31.6573 17.7502 31.3507C16.7455 30.821 15.4405 31.0504 15.0328 31.8206C14.5266 32.7767 14.7242 34.5114 15.1773 36.2109C15.0326 36.1007 14.8476 36.0031 14.6625 35.9056C14.2395 35.6826 13.7602 35.5658 13.2371 35.5958Z" fill="#333333"/>
<path d="M30.301 22.8627C30.2691 22.48 30.0403 22.3265 29.4749 22.8658C27.9205 20.8376 27.1676 21.2667 25.8793 21.1325C24.9309 20.9633 24.313 21.0983 23.6824 21.6998C22.2473 23.0687 21.9069 25.4587 22.5755 28.1253C22.9779 29.6828 23.6388 31.0763 24.5447 32.0295C25.2036 32.7228 26.0169 33.1861 26.9448 33.3337C28.3154 33.5545 29.4083 33.0904 30.1258 32.406C30.452 32.0948 30.6511 31.781 30.785 31.5293C31.9023 29.3896 31.2761 25.939 30.0239 23.7053C30.2219 23.4337 30.3135 23.1812 30.301 22.8627ZM27.4323 23.9881C26.9255 23.9346 26.2814 23.475 25.9109 23.0851C25.5814 22.7384 25.6124 22.3784 25.7429 22.2539C25.895 22.1088 26.1925 22.0729 26.5014 22.3978C26.7691 22.6795 27.1762 23.2824 27.4323 23.9881ZM27.1673 31.3866C26.4055 30.5851 25.6004 29.04 25.1775 27.4608C24.9295 26.4581 24.8278 25.5225 24.8727 24.6536C25.7673 25.246 26.7592 25.3737 27.8668 25.1433C28.1687 25.7227 28.4225 26.5132 28.6317 27.3876C29.2272 29.6283 29.1192 31.2595 28.5539 31.7988C28.2277 32.11 27.785 32.0366 27.1673 31.3866Z" fill="#333333"/>
<path d="M34.3728 14.1785C32.8152 14.9568 31.4092 17.4654 31.4043 20.9126C31.3704 22.2673 31.6318 23.4745 32.1088 24.4401C33.1688 26.586 35.3201 27.4843 37.7775 26.223C39.8589 25.1496 41.3848 22.7484 41.6104 20.629C41.7227 19.6364 41.3783 18.939 41.0717 18.6573C40.6854 18.2819 40.3355 18.5904 40.2926 19.1135C40.0134 21.2597 39.1807 24.251 37.1533 25.2306C36.415 25.5661 35.5739 25.0833 34.9909 23.9031C34.5934 23.0984 34.3187 21.8644 34.3125 20.4962C34.3135 17.7868 35.1978 15.171 35.6526 15.2782C35.813 15.3319 35.8635 15.9086 35.86 16.5793C35.9198 17.9206 36.0506 18.5241 36.2228 18.8729C36.5805 19.5971 37.2888 19.8786 37.9179 19.9322C38.5875 19.932 38.8027 19.7577 38.739 19.1541C38.7006 18.8053 38.663 18.3225 38.6791 17.8127C38.6726 16.5116 38.612 15.3045 37.772 14.6206C36.9448 14.0306 35.3665 13.6821 34.3728 14.1785Z" fill="#333333"/>
<path d="M59.9739 18.4103C60.4119 17.2832 59.9471 16.154 59.3507 16.2122C59.1121 16.2356 59.0309 16.3338 58.9606 16.5515C58.304 18.5734 56.9615 20.6622 55.7986 20.7758C55.5004 20.8049 55.3239 20.521 55.2827 20.0732C55.1538 18.6702 56.5682 15.3997 57.596 13.1608C57.7961 12.7196 57.9068 12.2871 57.8629 11.8095C57.7998 11.123 57.3644 9.65947 56.4699 9.74683C55.8735 9.80507 55.3591 10.4276 55.2535 10.5884C54.4632 11.8102 52.8849 13.9522 51.2404 15.0465C51.0145 14.2252 50.7725 13.556 50.1462 13.6172C49.52 13.6783 48.8428 14.1661 48.388 14.7828C47.99 15.3638 47.8146 16.0737 47.8393 16.3424C47.8887 16.8797 48.3634 17.1345 48.8785 17.1745C48.9221 17.3209 48.9495 17.6195 48.9742 17.8881C49.1388 19.6791 47.6904 21.5976 46.6169 21.7025C46.2293 21.7403 45.9496 21.3158 45.8892 20.6591C45.796 19.6441 46.4125 18.1683 46.8156 17.3158C47.3187 16.2426 48.7824 13.5094 48.6618 12.1959C48.5904 11.4198 47.8274 10.3196 47.231 10.3779C46.9924 10.4012 46.7676 10.5737 46.6432 10.857C46.2107 12.0437 45.6805 13.1497 45.1801 14.2527C44.0656 16.5301 43.0868 18.975 43.2295 20.5273C43.3721 22.0795 44.5283 23.2015 46.4964 23.0094C49.6572 22.7007 51.8257 19.7783 51.6144 17.4797C51.5953 17.2707 51.5568 16.8528 51.5024 16.587C52.5237 15.915 53.5258 15.0341 54.3546 14.2303C53.7757 15.4615 53.1157 16.7909 52.8998 17.7156C52.7027 18.518 52.6411 19.1564 52.6932 19.7237C52.8304 21.2162 53.7315 22.1824 55.5505 22.0047C57.3397 21.8301 59.2521 20.3783 59.9739 18.4103Z" fill="#333333"/>
<path d="M75.2052 15.5615C75.6546 15.0794 75.7995 14.748 75.9262 14.3786C76.1404 13.7534 75.6217 12.4994 74.7999 12.2213C74.4317 12.0967 74.2133 12.1813 73.9179 12.3984C72.7545 13.3046 70.7861 15.1753 69.069 16.5918C66.6463 18.4988 65.597 19.3486 64.4546 20.0083C63.6741 20.4418 63.5131 20.4507 63.343 20.3931C63.1729 20.3356 63.1561 20.1079 63.2534 19.8237C63.6328 18.7154 64.4357 17.9405 65.275 17.2417C65.4472 17.1096 65.5046 17.0339 65.5242 16.9771C65.5823 16.8066 65.4528 16.4457 64.8018 16.2251C64.3202 16.0621 63.3633 16.0871 62.5796 16.8999C62.1398 17.3535 61.5381 17.9109 61.1586 19.0192C60.643 20.5254 61.4688 21.3442 62.46 21.6798C63.14 21.91 63.8778 21.9696 64.7899 21.6125C66.1213 21.0483 68.1618 19.5193 69.8495 18.1881C69.0543 19.219 68.0855 20.5718 67.8811 21.1686C67.3946 22.5895 68.0197 23.6257 69.4358 24.1052C71.2201 24.7093 73.9438 24.0459 75.3102 22.7325C75.74 22.3072 75.999 21.9193 76.1159 21.5783C76.2524 21.1804 76.1257 20.535 75.7288 20.4008C75.5027 20.324 75.3599 20.3709 75.1786 20.5315C73.5168 22.0619 71.3454 23.4198 70.3262 23.0746C70.1274 23.0074 70.1876 22.6473 70.3437 22.1926C70.8302 20.7716 73.6645 17.2916 75.2052 15.5615Z" fill="#333333"/>
<path d="M80.5357 36.4343C80.696 35.4795 81.1937 34.4894 81.7439 33.8133C82.4838 32.9042 83.2468 32.4401 83.4148 32.4224C84.1505 32.3236 84.8624 32.2059 85.4315 31.9328C86.3058 31.521 86.7594 30.7273 86.814 30.4232C86.8903 29.9036 86.5655 29.6394 86.0118 29.847C84.1806 30.4875 81.4457 31.2446 80.7506 30.6784C80.171 30.2066 80.7723 28.3317 82.1212 26.4845C85.3888 27.4403 87.3565 27.1051 89.2255 26.418C89.6154 26.2703 89.9927 25.9961 90.2965 25.6231C90.8656 24.9238 90.6276 24.0324 89.3718 24.2499C86.485 24.7672 84.0917 24.6784 81.2854 23.8658C81.7782 23.6859 82.187 23.515 82.5769 23.3674C83.3147 23.0765 84.0098 22.7901 84.6629 22.5082C85.4154 22.1518 85.8305 21.831 86.1154 21.4814C86.3429 21.2016 86.4822 20.8886 86.5788 20.58C86.87 19.6541 86.3961 19.3844 85.6499 19.5909C81.3113 20.7087 78.5008 21.9853 76.2055 23.5272C75.4089 24.08 74.9602 24.4896 74.6564 24.8626C74.2581 25.3521 74.1314 25.7917 74.1314 26.218C74.1482 26.813 74.6137 26.9984 75.0414 26.8042C77.0644 25.7385 78.9166 24.8826 80.4489 24.231C77.8225 27.3637 78.0304 30.0911 79.7447 31.4876C80.0233 31.7141 80.451 31.9461 80.8045 32.0794C80.5245 32.4712 80.1619 33.1062 79.9827 33.6579C79.5046 32.9197 78.8074 32.1193 78.344 31.7419C76.4904 30.2321 75.4285 30.2587 74.4086 29.4284C73.4818 28.6735 73.3306 28.0075 73.2718 27.4169C73.2277 27.1871 73.1787 26.9152 73.0086 26.6987C72.5473 26.1292 72.2967 26.39 72.0538 26.7353C71.582 27.5523 70.9954 29.3617 73.1969 31.1546C73.9382 31.7585 75.908 32.51 77.252 33.6046C77.9933 34.2085 78.6443 34.9711 78.806 35.9557C78.9768 37.0248 80.276 37.8896 80.5357 36.4343Z" fill="#333333"/>
<path d="M91.2408 31.5938C89.4026 31.4458 87.6869 31.8528 86.5809 32.5201C85.064 33.4356 84.4501 34.9242 85.3559 36.4386C85.9698 37.4652 87.458 38.1392 88.6228 38.4489C87.7947 39.2285 87.5714 40.3763 88.3386 41.6596C89.2752 43.2253 91.6202 44.0454 93.4339 43.8592C94.3943 43.7686 94.9963 43.1956 95.1664 42.9532C95.5528 42.3707 95.389 42.1552 94.7058 42.1832C92.5281 42.3449 90.0123 42.1169 89.4593 41.1929C89.306 40.9362 89.4761 40.6939 89.8611 40.4611C91.5838 39.4214 95.676 39.8859 97.489 39.6997C99.2257 39.5601 100.218 38.6463 100.472 37.8996C100.647 37.3744 100.36 36.9535 99.6625 36.9559L98.5733 36.9493C99.1039 36.3148 99.2292 35.4709 98.6762 34.5469C97.8929 33.2379 95.4261 31.8626 91.2408 31.5938ZM86.6866 36.0895C86.5333 35.8328 86.7804 35.5439 87.2431 35.2646C88.0656 34.768 89.6896 34.3819 91.3584 34.4225C94.2494 34.4589 96.9283 35.2523 97.2356 35.7656C97.3889 36.0223 97.2398 36.1823 96.9311 36.3685C96.2626 36.7719 94.7268 37.0704 92.3797 37.1246C89.4677 37.1705 87.1934 36.9365 86.6866 36.0895Z" fill="#333333"/>
<path d="M85.4056 69.4127L99.5309 76.8446L97.0697 80.213L94.6582 78.7031L93.7958 79.8833L95.9448 81.753L93.4549 85.1606L81.928 74.172L85.4056 69.4127ZM92.33 77.1456C90.7641 76.2573 88.8601 75.1212 86.6173 73.7387C88.8097 75.852 90.44 77.3626 91.5075 78.2705L92.33 77.1456Z" fill="#333333"/>
<path d="M79.4437 75.7652L88.5577 88.6592L85.6485 90.7151L79.4962 82.0099L84.4865 91.5362L82.4236 92.9943L75.1863 85.3545L81.1986 93.8602L78.2894 95.9161L69.1761 83.0221L73.4839 79.9771C74.158 80.6631 74.9378 81.4814 75.8233 82.432L78.6009 85.3895L75.1044 78.8319L79.4437 75.7652Z" fill="#333333"/>
<path d="M69.0564 93.3093C69.4281 94.8514 69.6542 95.9546 69.7347 96.6168C69.8194 97.272 69.7347 97.9111 69.4799 98.5348C69.2314 99.1564 68.8184 99.687 68.2409 100.127C67.6627 100.568 66.9445 100.891 66.0849 101.098C65.2694 101.295 64.5036 101.339 63.7868 101.23C63.0756 101.115 62.4573 100.836 61.9326 100.393C61.4079 99.9516 61.0317 99.4238 60.804 98.8099C60.5764 98.196 60.2722 97.0984 59.8913 95.5185L59.2583 92.8921C58.8866 91.35 58.6582 90.251 58.5734 89.5958C58.4933 88.9329 58.5775 88.291 58.8259 87.6694C59.0806 87.0464 59.4967 86.5144 60.0744 86.0741C60.6519 85.6338 61.3705 85.3104 62.2299 85.1032C63.0455 84.9065 63.8092 84.8666 64.5204 84.9828C65.2372 85.0906 65.8574 85.3657 66.3824 85.8081C66.9074 86.2498 67.2833 86.7776 67.5108 87.3915C67.7383 88.0054 68.0428 89.103 68.4236 90.6829L69.0564 93.3093ZM63.8792 89.2199C63.707 88.5059 63.5565 88.0607 63.4277 87.8843C63.3038 87.7002 63.1197 87.6379 62.8748 87.6967C62.6679 87.7464 62.5277 87.8675 62.4544 88.0586C62.3858 88.2427 62.4467 88.7292 62.6372 89.5195L64.365 96.6875C64.5799 97.5786 64.7465 98.1204 64.8662 98.3122C64.9915 98.5026 65.1861 98.5663 65.4493 98.5026C65.7195 98.4375 65.863 98.2758 65.8805 98.0175C65.8973 97.7592 65.7972 97.1782 65.5795 96.2745L63.8792 89.2199Z" fill="#333333"/>
<path d="M55.0096 104.84L52.1975 104.678L52.3542 101.961L45.783 101.583L45.6263 104.299L42.824 104.137L43.1705 98.1295L44.0015 98.1778C44.5141 96.9108 44.9695 95.2343 45.3678 93.1469C45.773 91.0539 46.0477 88.7579 46.1918 86.2589L46.2193 85.7815L55.245 86.3023L54.5261 98.7651L55.3572 98.8127L55.0096 104.84ZM50.4482 98.5299L50.9873 89.1828L49.7794 89.1128L49.7727 89.2297C49.5985 92.2481 49.0989 95.3064 48.2739 98.4046L50.4482 98.5299Z" fill="#333333"/>
<path d="M35.5501 88.9042C35.8418 89.4593 35.9339 90.0039 35.8265 90.5387C35.7236 91.0686 35.09 91.9471 33.9258 93.1728C33.0616 94.0821 32.287 94.6918 31.602 95.0005C30.9215 95.305 30.2032 95.3491 29.4472 95.1328C28.6956 94.9123 27.9244 94.4265 27.1337 93.6754C26.2354 92.8221 25.6721 92.0003 25.4441 91.2093C25.2251 90.419 25.242 89.726 25.4947 89.1324C25.7565 88.5381 26.4046 87.6967 27.4389 86.6075L28.2987 85.7024L31.134 88.3953L29.3676 90.2552C28.8974 90.7501 28.6254 91.0924 28.5517 91.2828C28.4872 91.4725 28.5555 91.6629 28.7567 91.854C28.9766 92.0633 29.2022 92.1158 29.4337 92.0129C29.665 91.91 30.1211 91.4998 30.8017 90.7837L31.5539 89.9913C31.9703 89.5531 32.2257 89.1856 32.32 88.8895C32.4143 88.5934 32.3947 88.3239 32.261 88.0803C32.1319 87.8325 31.7957 87.4412 31.2526 86.9071L32.831 85.2453C33.5047 85.8858 33.9458 86.2554 34.1541 86.3541C34.3624 86.4535 34.5845 86.4493 34.8204 86.3415C35.0563 86.2337 35.3511 85.9936 35.7048 85.6212L36.3093 84.9849C36.6899 84.5845 36.8986 84.28 36.9353 84.0728C36.9767 83.8698 36.9108 83.6864 36.7376 83.5219C36.5411 83.335 36.3405 83.2748 36.1358 83.3406C35.9402 83.4057 35.6343 83.6577 35.2178 84.0959L34.3245 85.0367L31.4891 82.3431L32.416 81.3673C33.4549 80.2739 34.4037 79.7713 35.2623 79.8609C36.1254 79.9456 37.0974 80.5007 38.1782 81.5276C39.5303 82.8121 40.1944 83.9496 40.1703 84.9394C40.1463 85.9299 39.6842 86.8994 38.7842 87.8465C38.1752 88.4877 37.6476 88.8699 37.2013 88.9931C36.7595 89.1114 36.2091 89.082 35.5501 88.9042Z" fill="#333333"/>
<path d="M20.3382 85.9887L18.2731 83.2783L23.9903 78.9222L16.9884 81.5927L14.8236 78.7514L27.3905 69.1754L29.4556 71.8858L23.785 76.2069L30.8401 73.7023L32.9052 76.4127L20.3382 85.9887Z" fill="#333333"/>
<path d="M96.3522 51.6196L98.1141 54.9591L101.835 55.6029L99.2033 58.3106L99.7409 62.048L96.3522 60.3819L92.9642 62.048L93.5018 58.3106L90.8698 55.6029L94.5903 54.9591L96.3522 51.6196Z" fill="#FD4B20"/>
<path d="M14.0003 51.6196L15.7622 54.9591L19.4828 55.6029L16.8512 58.3106L17.3887 62.048L14.0003 60.3819L10.6119 62.048L11.1493 58.3106L8.51767 55.6029L12.2383 54.9591L14.0003 51.6196Z" fill="#FD4B20"/>
</svg>
