<svg width="70" height="70" viewBox="0 0 70 70" fill="none" xmlns="http://www.w3.org/2000/svg">
<path fill-rule="evenodd" clip-rule="evenodd" d="M70 35C70 54.33 54.33 70 35 70C15.67 70 0 54.33 0 35C0 15.67 15.67 0 35 0C54.33 0 70 15.67 70 35ZM60 35C60 48.8071 48.8071 60 35 60C21.1929 60 10 48.8071 10 35C10 21.1929 21.1929 10 35 10C48.8071 10 60 21.1929 60 35ZM31.0002 2L30.0361 3.92143L28 4.29179L29.4402 5.8497L29.146 8L31.0002 7.04142L32.854 8L32.5598 5.8497L34 4.29179L31.9643 3.92143L31.0002 2ZM22.0361 5.92142L23.0002 4L23.9643 5.92142L26 6.29179L24.5598 7.8497L24.854 10L23.0002 9.04142L21.146 10L21.4402 7.8497L20 6.29179L22.0361 5.92142ZM16.0002 9L15.0361 10.9214L13 11.2918L14.4402 12.8497L14.146 15L16.0002 14.0414L17.854 15L17.5598 12.8497L19 11.2918L16.9643 10.9214L16.0002 9ZM9.03613 16.9214L10.0002 15L10.9643 16.9214L13 17.2918L11.5598 18.8497L11.854 21L10.0002 20.0414L8.14599 21L8.44015 18.8497L7 17.2918L9.03613 16.9214ZM6.00019 23L5.03613 24.9214L3 25.2918L4.44015 26.8497L4.14599 29L6.00019 28.0414L7.854 29L7.55984 26.8497L9 25.2918L6.96425 24.9214L6.00019 23ZM4.03613 33.9214L5.00019 32L5.96425 33.9214L8 34.2918L6.55984 35.8497L6.854 38L5.00019 37.0414L3.14599 38L3.44015 35.8497L2 34.2918L4.03613 33.9214ZM64.0361 33.9214L65.0002 32L65.9642 33.9214L68 34.2918L66.5598 35.8497L66.854 38L65.0002 37.0414L63.146 38L63.4402 35.8497L62 34.2918L64.0361 33.9214ZM5.03613 45.0786L6.00019 47L6.96425 45.0786L9 44.7082L7.55984 43.1503L7.854 41L6.00019 41.9586L4.14599 41L4.44015 43.1503L3 44.7082L5.03613 45.0786ZM10.0002 55L9.03613 53.0786L7 52.7082L8.44015 51.1503L8.14599 49L10.0002 49.9586L11.854 49L11.5598 51.1503L13 52.7082L10.9643 53.0786L10.0002 55ZM15.0361 59.0786L16.0002 61L16.9643 59.0786L19 58.7082L17.5598 57.1503L17.854 55L16.0002 55.9586L14.146 55L14.4402 57.1503L13 58.7082L15.0361 59.0786ZM23.0002 66L22.0361 64.0786L20 63.7082L21.4402 62.1503L21.146 60L23.0002 60.9586L24.854 60L24.5598 62.1503L26 63.7082L23.9643 64.0786L23.0002 66ZM30.0361 66.0786L31.0002 68L31.9643 66.0786L34 65.7082L32.5598 64.1503L32.854 62L31.0002 62.9586L29.146 62L29.4402 64.1503L28 65.7082L30.0361 66.0786ZM63.9998 23L64.9639 24.9214L67 25.2918L65.5598 26.8497L65.854 29L63.9998 28.0414L62.146 29L62.4402 26.8497L61 25.2918L63.0357 24.9214L63.9998 23ZM60.9639 16.9214L59.9998 15L59.0357 16.9214L57 17.2918L58.4402 18.8497L58.146 21L59.9998 20.0414L61.854 21L61.5598 18.8497L63 17.2918L60.9639 16.9214ZM53.9998 9L54.9639 10.9214L57 11.2918L55.5598 12.8497L55.854 15L53.9998 14.0414L52.146 15L52.4402 12.8497L51 11.2918L53.0357 10.9214L53.9998 9ZM47.9639 5.92142L46.9998 4L46.0357 5.92142L44 6.29179L45.4402 7.8497L45.146 10L46.9998 9.04142L48.854 10L48.5598 7.8497L50 6.29179L47.9639 5.92142ZM38.9998 2L39.9639 3.92143L42 4.29179L40.5598 5.8497L40.854 8L38.9998 7.04142L37.146 8L37.4402 5.8497L36 4.29179L38.0357 3.92143L38.9998 2ZM64.9639 45.0786L63.9998 47L63.0357 45.0786L61 44.7082L62.4402 43.1503L62.146 41L63.9998 41.9586L65.854 41L65.5598 43.1503L67 44.7082L64.9639 45.0786ZM59.9998 55L60.9639 53.0786L63 52.7082L61.5598 51.1503L61.854 49L59.9998 49.9586L58.146 49L58.4402 51.1503L57 52.7082L59.0357 53.0786L59.9998 55ZM54.9639 59.0786L53.9998 61L53.0357 59.0786L51 58.7082L52.4402 57.1503L52.146 55L53.9998 55.9586L55.854 55L55.5598 57.1503L57 58.7082L54.9639 59.0786ZM46.9998 66L47.9639 64.0786L50 63.7082L48.5598 62.1503L48.854 60L46.9998 60.9586L45.146 60L45.4402 62.1503L44 63.7082L46.0357 64.0786L46.9998 66ZM39.9639 66.0786L38.9998 68L38.0357 66.0786L36 65.7082L37.4402 64.1503L37.146 62L38.9998 62.9586L40.854 62L40.5598 64.1503L42 65.7082L39.9639 66.0786Z" fill="white"/>
<path fill-rule="evenodd" clip-rule="evenodd" d="M21.888 23C20.8453 23 20 23.8395 20 24.875C20 25.7739 20.6368 26.5249 21.4869 26.7076V43.2923C20.6368 43.4749 20 44.2261 20 45.1253C20 46.1605 20.8453 47 21.888 47H48.1117C49.1547 47 50 46.1605 50 45.1253C50 44.2261 49.3627 43.4749 48.5128 43.2923V26.7077C49.3627 26.5252 50 25.774 50 24.875C50 23.8395 49.1547 23 48.1117 23H21.888ZM44.7947 26.75H25.2048V31.4004H28.9533C29.4816 29.3301 31.3448 27.8002 33.5624 27.8002C35.7799 27.8002 37.6432 29.3301 38.1714 31.4004H44.7947V26.75ZM44.7947 33.8004H38.1713C38.0084 34.4385 37.7187 35.0253 37.3309 35.5318C37.3839 35.5822 37.4389 35.6333 37.4957 35.6854C38.2859 36.4084 39.3476 37.135 40.1623 37.6534C40.7665 38.0377 40.8728 38.8911 40.3583 39.3877C40.0218 39.7125 39.5132 39.7834 39.1091 39.5466C38.2482 39.0421 36.7765 38.1181 35.9015 37.2241C35.8101 37.1307 35.7186 37.0309 35.6274 36.9259C35.5614 36.9581 35.4945 36.9887 35.4268 37.0178C35.4328 37.0695 35.4381 37.1207 35.4426 37.1713C35.5543 38.413 35.2997 40.1235 35.1232 41.1004C35.0403 41.5594 34.6545 41.896 34.1871 41.9373C33.4726 42.0005 32.8905 41.364 32.9911 40.6587C33.1261 39.7134 33.263 38.4507 33.229 37.3885C31.16 37.2442 29.455 35.7659 28.9534 33.8004H25.2048V43.25H44.7947V33.8004Z" fill="#E24B27"/>
</svg>
