<svg width="36" height="40" viewBox="0 0 36 40" fill="none" xmlns="http://www.w3.org/2000/svg">
<path fill-rule="evenodd" clip-rule="evenodd" d="M8.33915 0.121927C7.61846 0.33599 7.05133 0.708958 6.60811 1.26031C6.31216 1.62849 6.18104 1.86682 6.01445 2.33938L5.87522 2.73438L5.86027 6.96615L5.84531 11.1979L3.67895 11.1982C2.25529 11.1984 1.44144 11.2183 1.30492 11.2561C1.02932 11.3327 0.634395 11.7288 0.558058 12.0052C0.51802 12.1504 0.500467 13.6348 0.500312 16.9039L0.5 21.5941L0.631539 21.8589C0.76261 22.1227 1.00315 22.3351 1.29531 22.445C1.38951 22.4804 2.22491 22.5 3.6441 22.5H5.84671L5.86073 29.8828L5.87476 37.2656L6.01424 37.6606C6.41826 38.8049 7.23304 39.5677 8.39668 39.8909L8.78948 40L20.6781 39.9991C32.129 39.9982 32.5802 39.9946 32.9303 39.9007C33.4184 39.7698 33.6433 39.6682 34.0645 39.3884C34.7099 38.9596 35.2615 38.1396 35.4227 37.3698C35.4886 37.0549 35.4992 35.2739 35.4999 24.2955C35.5008 12.6223 35.4939 11.5752 35.416 11.4569C35.294 11.2717 24.4017 0.331823 24.1593 0.151042L23.9568 0L16.3438 0.00281254L8.73091 0.00557293L8.33915 0.121927ZM8.54915 1.19141C8.00051 1.36823 7.56954 1.70651 7.27489 2.19156C6.93293 2.75453 6.93932 2.66052 6.93932 7.14635V11.1979L14.3523 11.1982C19.1649 11.1984 21.8313 11.2169 21.9535 11.2509C22.0569 11.2797 22.2476 11.3969 22.3771 11.5112C22.8001 11.8847 22.778 11.5865 22.778 16.9001V21.5941L22.6464 21.8589C22.5154 22.1227 22.2748 22.3351 21.9827 22.445C21.8825 22.4827 19.4895 22.5 14.3879 22.5H6.93932V29.7026C6.93932 37.6322 6.92348 37.2309 7.25843 37.7842C7.47446 38.141 7.69049 38.3601 8.02985 38.5662C8.63535 38.9341 7.59816 38.9062 20.6788 38.9062C32.2836 38.9062 32.4834 38.9045 32.8102 38.8033C33.435 38.6098 33.9313 38.1726 34.22 37.5615L34.3843 37.2135L34.3978 24.7526L34.4113 12.2917H29.7835C24.8112 12.2917 24.831 12.2927 24.3471 12.0248C24.0448 11.8576 23.6338 11.4228 23.4798 11.1074C23.4026 10.9493 23.3187 10.6764 23.2934 10.501C23.2681 10.3257 23.247 8.1374 23.2464 5.63802L23.2453 1.09375L16.0401 1.09656C9.29783 1.09917 8.81643 1.10526 8.54915 1.19141ZM4.46304 13.7221C4.12975 13.8674 4.1351 13.8155 4.1351 16.8977V19.6858L4.28663 19.8559C4.41578 20.0009 4.47311 20.026 4.67491 20.026C4.86435 20.026 4.94048 19.9972 5.05566 19.8818L5.19967 19.7374L5.22563 18.5797L5.2516 17.4219L6.31616 17.3935C7.34251 17.3662 7.39106 17.3601 7.66915 17.223C8.81337 16.6588 9.10402 15.2107 8.26084 14.2747C8.01084 13.9972 7.68291 13.8046 7.31046 13.7167C6.89155 13.6178 4.69257 13.6219 4.46304 13.7221ZM9.65604 13.7221C9.32275 13.8674 9.3281 13.8155 9.3281 16.8977V19.6858L9.47953 19.8559L9.63096 20.026L10.6981 20.042C11.2851 20.0508 11.8943 20.0341 12.0518 20.0049C12.6776 19.8889 13.2683 19.4743 13.6088 18.912C13.9053 18.4227 13.9499 18.1529 13.9499 16.8509C13.9499 15.8797 13.9347 15.6496 13.8514 15.3572C13.6133 14.5224 12.9529 13.9019 12.1064 13.7174C11.6654 13.6213 9.87918 13.6247 9.65604 13.7221ZM14.8334 13.7371C14.7339 13.7871 14.6229 13.8867 14.5868 13.9583C14.5359 14.0594 14.5241 14.7198 14.5341 16.9099L14.5471 19.7312L14.6722 19.8648C14.9081 20.1166 15.3088 20.0896 15.4921 19.8095C15.5726 19.6865 15.5893 19.5094 15.6116 18.5442L15.6376 17.4219L16.9794 17.3958L18.3212 17.3698L18.446 17.2241C18.5147 17.144 18.5854 17.0205 18.6031 16.9496C18.6489 16.7667 18.5292 16.5147 18.3421 16.4003C18.197 16.3116 18.0627 16.3024 16.8955 16.3023L15.6089 16.3021L15.6232 15.5339L15.6376 14.7656L17.2303 14.7396C18.819 14.7136 18.8235 14.7132 18.9543 14.5898C19.1282 14.4259 19.1673 14.222 19.0698 13.9879C18.9316 13.6562 18.8632 13.6458 16.8207 13.6459C15.2048 13.646 14.9954 13.6556 14.8334 13.7371ZM5.26027 14.7743C5.24121 14.7934 5.22563 15.1468 5.22563 15.5596V16.3102L6.19932 16.2931C7.11308 16.2771 7.18313 16.2688 7.33773 16.1582C7.54758 16.0081 7.69179 15.6472 7.64401 15.3918C7.59743 15.1427 7.35357 14.8755 7.10456 14.8007C6.88957 14.736 5.32077 14.7136 5.26027 14.7743ZM10.4424 14.8048C10.4286 14.8407 10.4235 15.7841 10.431 16.9011L10.4446 18.9323H11.1976C12.0369 18.9322 12.1891 18.8898 12.5021 18.5687C12.817 18.2458 12.8533 18.0695 12.8559 16.849C12.8582 15.8099 12.8523 15.7421 12.7373 15.4944C12.5824 15.1609 12.3095 14.9217 11.9679 14.8199C11.6232 14.7173 10.4802 14.7059 10.4424 14.8048ZM10.331 26.047C9.94524 26.159 9.81946 26.6467 10.1031 26.9311L10.2548 27.0833H20.67H31.0851L31.2488 26.9367C31.381 26.8182 31.4125 26.7496 31.4125 26.581C31.4125 26.3049 31.2774 26.1084 31.0425 26.0429C30.7963 25.9743 10.5677 25.9783 10.331 26.047ZM10.2308 30.1866C9.84922 30.3754 9.85851 30.9408 10.2464 31.1397C10.3288 31.182 13.1926 31.1979 20.7225 31.1979H31.0851L31.2488 31.0513C31.3807 30.933 31.4125 30.8641 31.4125 30.6965C31.4125 30.5821 31.3841 30.4352 31.3493 30.37C31.2001 30.0904 31.7522 30.1041 20.6635 30.1054C11.5282 30.1064 10.3748 30.1154 10.2308 30.1866ZM10.2369 34.2792C10.0515 34.3815 9.95355 34.5499 9.95407 34.7656C9.95459 34.9893 10.0074 35.0841 10.2095 35.2238C10.3294 35.3066 11.0208 35.3125 20.6734 35.3123C30.8185 35.3121 31.0119 35.3103 31.1745 35.2108C31.4773 35.0256 31.5072 34.5804 31.2324 34.3484L31.0788 34.2188L20.7098 34.2203C13.2697 34.2215 10.3114 34.2381 10.2369 34.2792Z" fill="#333333"/>
</svg>
