<svg width="55" height="28" viewBox="0 0 55 28" fill="none" xmlns="http://www.w3.org/2000/svg">
<g clip-path="url(#clip0_803_17452)">
<path d="M11.2907 0.893398C5.78529 1.70775 1.42512 5.77951 0.195105 11.2425C0.0254485 12.0229 0 12.3452 0 13.9909C0 15.6366 0.0254485 15.9589 0.195105 16.7393C0.780421 19.3436 1.9256 21.4303 3.81727 23.3305C5.84467 25.3579 8.38104 26.6558 11.138 27.0545C11.9438 27.1732 13.8779 27.1817 27.9085 27.1562L43.7714 27.1308L44.5349 26.9442C46.3332 26.5031 47.7583 25.9008 49.0647 25.0271C52.3221 22.8555 54.3834 19.5641 54.8839 15.7468C55.3081 12.5234 54.5616 9.28292 52.7802 6.63628C50.8461 3.77756 47.9874 1.83499 44.5094 1.03761L43.6866 0.850985L27.7389 0.834019C18.9676 0.825535 11.5706 0.850985 11.2907 0.893398ZM43.7375 2.12341C46.1296 2.5221 48.3012 3.63335 50.0996 5.35537C52.4154 7.59484 53.6539 10.3263 53.7981 13.5243C53.9678 17.4858 52.1779 21.2013 48.9205 23.6613C47.7075 24.5775 45.9176 25.3918 44.238 25.7905C43.6442 25.9347 42.6432 25.9517 27.8237 25.9771C10.383 26.0026 11.3076 26.028 9.55167 25.4682C5.21694 24.0855 2.06981 20.4718 1.26394 15.9759C1.07732 14.924 1.07732 13.0578 1.26394 12.0059C2.17161 6.89924 6.13309 2.97169 11.2398 2.11493C11.7318 2.0301 15.303 2.00465 27.408 1.99617C41.1926 1.98768 43.0249 2.00465 43.7375 2.12341Z" fill="#334047"/>
<path d="M11.5368 6.85668C9.91653 7.22144 8.33873 8.20545 7.38865 9.44394C5.27643 12.1839 5.30187 15.9079 7.44803 18.5969C8.05879 19.3773 8.85618 20.0051 9.84019 20.4886C10.9769 21.0485 11.4859 21.1757 12.8346 21.2181C14.2767 21.2775 15.2183 21.0824 16.3805 20.4801C18.5945 19.3519 20.0111 17.3499 20.325 14.9069C20.4268 14.101 20.3674 12.6759 20.2232 12.6759C20.1808 12.6759 19.8075 12.9219 19.4003 13.2273L18.6454 13.7787L18.5945 14.3979C18.4248 16.6289 16.8809 18.546 14.6754 19.2586C13.8271 19.5385 12.6056 19.5724 11.7488 19.3434C9.9335 18.8514 8.38962 17.3839 7.82127 15.6025C7.55831 14.7542 7.55831 13.2273 7.82127 12.379C8.38962 10.5891 9.92502 9.13007 11.7488 8.63807C12.4275 8.45993 13.5642 8.44296 14.2852 8.59566C14.5821 8.66352 15.1504 8.88407 15.5491 9.07918L16.2787 9.44394L16.9827 8.92649C17.3729 8.63807 17.6868 8.3751 17.6868 8.34965C17.6868 8.1291 15.8884 7.17902 15.0147 6.9415C14.3276 6.7464 12.2323 6.70398 11.5368 6.85668Z" fill="#334047"/>
<path d="M25.8303 13.609V18.3594H26.721H27.6117V16.9343V15.5007L28.9096 15.4413C30.3941 15.3819 31.0812 15.2377 31.7853 14.8644C32.7523 14.3555 33.2104 13.5581 33.2783 12.2857C33.3546 10.8521 32.905 9.93592 31.8616 9.37606C31.0303 8.93495 30.4789 8.8586 28.0189 8.8586H25.8303V13.609ZM30.6231 10.7248C31.2084 11.0132 31.429 11.378 31.429 12.0142C31.429 13.3206 30.7249 13.7786 28.6975 13.7786H27.6117V12.116V10.4534L28.9096 10.4873C30.0802 10.5128 30.2414 10.5297 30.6231 10.7248Z" fill="#334047"/>
<path d="M15.9223 11.6243L13.0975 13.7111L11.8081 12.9052C11.0955 12.4726 10.4678 12.0824 10.4169 12.0484C10.3321 11.9975 10.3066 12.2351 10.3066 13.0833V14.1776L11.6809 15.0429C12.4358 15.5179 13.0975 15.8912 13.1484 15.8657C13.3859 15.7809 19.7226 11.039 19.7226 10.9542C19.7226 10.793 18.9337 9.53752 18.8404 9.53752C18.7895 9.53752 17.4746 10.4791 15.9223 11.6243Z" fill="#334047"/>
<path d="M35.2632 11.5308C34.9663 11.5987 34.6015 11.7175 34.4573 11.8108L34.1858 11.9635L34.1604 13.0153L34.135 14.0757L34.4912 13.7024C34.9323 13.2444 35.5431 12.9559 36.2217 12.8881C37.2651 12.7693 37.8759 13.1595 37.8759 13.9484V14.3556L36.4592 14.3895C34.8814 14.4235 34.5761 14.4998 34.0841 14.9833C33.7363 15.3227 33.6005 15.7129 33.609 16.4085C33.6175 17.7487 34.3894 18.4783 35.7976 18.4783C36.6035 18.4783 37.1464 18.2747 37.6468 17.7827L37.9607 17.4773V17.9184V18.3595H38.7751H39.5809L39.5555 15.662L39.53 12.9729L39.2671 12.5064C39.0465 12.1077 38.9193 11.9974 38.4442 11.7514C37.9098 11.4799 37.8335 11.463 36.841 11.4375C36.1454 11.4121 35.6194 11.446 35.2632 11.5308ZM37.8759 15.8231C37.8759 16.7054 36.4338 17.3246 35.6194 16.7902C35.1699 16.5018 35.1699 15.908 35.6194 15.6365C35.84 15.5008 36.0521 15.4753 36.8834 15.4753H37.8759V15.8231Z" fill="#334047"/>
<path d="M40.497 12.1415C40.6328 12.4639 41.2435 13.9144 41.8543 15.3819C42.4735 16.8495 43.0164 18.1304 43.0504 18.2322C43.1437 18.4697 42.8129 19.2077 42.5329 19.4113C42.2615 19.5979 41.8119 19.5809 41.4726 19.3689L41.1842 19.1907V20.0051C41.1842 20.9721 41.2096 20.9976 42.2106 21.057C42.9486 21.0994 43.3727 20.9382 43.7629 20.4716C44.1616 19.9966 44.2295 19.8269 46.8761 12.4808L47.207 11.5647L46.2993 11.5901L45.3916 11.6156L44.6621 13.8381L43.9411 16.0691L43.0504 13.8211L42.1597 11.5732H41.2096H40.2595L40.497 12.1415Z" fill="#334047"/>
</g>
<defs>
<clipPath id="clip0_803_17452">
<rect width="55" height="26.3356" fill="white" transform="matrix(1 0 0 -1 0 27.168)"/>
</clipPath>
</defs>
</svg>
